PathFileType	4	(X/Y/Z)	/Users/itak/Documents/Research/Walk-IL/dataset/trc/00253_00009.trc
DataRate	CameraRate	NumFrames	NumMarkers	Units	OrigDataRate	OrigDataStartFrame	OrigNumFrames
100.000000	100.000000	4	54	mm	100.000000	59	474
Frame#	Time	RPSI			LPSI			L3			STRN			T10			C7			CLAV			RBAK			LBAK			LSHO			LUPA			LAEL			LAOL			LWTS			LWPS			LFRA			LIFD			LHPS			LHTS			RSHO			RUPA			RAEL			RAOL			RWTS			RWPS			RFRA			RIFD			RHPS			RBHD			LFHD			RFHD			LBHD			LHIP			RHIP			RASI			LASI			LKNE			LTHI			LANK			LTIP			LTOE			LMT1			LMT5			LHEE			RKNE			RTHI			RANK			RTIP			RTOE			RMT1			RMT5			RHEE			RHTS			*53			
		X1	Y1	Z1	X2	Y2	Z2	X3	Y3	Z3	X4	Y4	Z4	X5	Y5	Z5	X6	Y6	Z6	X7	Y7	Z7	X8	Y8	Z8	X9	Y9	Z9	X10	Y10	Z10	X11	Y11	Z11	X12	Y12	Z12	X13	Y13	Z13	X14	Y14	Z14	X15	Y15	Z15	X16	Y16	Z16	X17	Y17	Z17	X18	Y18	Z18	X19	Y19	Z19	X20	Y20	Z20	X21	Y21	Z21	X22	Y22	Z22	X23	Y23	Z23	X24	Y24	Z24	X25	Y25	Z25	X26	Y26	Z26	X27	Y27	Z27	X28	Y28	Z28	X29	Y29	Z29	X30	Y30	Z30	X31	Y31	Z31	X32	Y32	Z32	X33	Y33	Z33	X34	Y34	Z34	X35	Y35	Z35	X36	Y36	Z36	X37	Y37	Z37	X38	Y38	Z38	X39	Y39	Z39	X40	Y40	Z40	X41	Y41	Z41	X42	Y42	Z42	X43	Y43	Z43	X44	Y44	Z44	X45	Y45	Z45	X46	Y46	Z46	X47	Y47	Z47	X48	Y48	Z48	X49	Y49	Z49	X50	Y50	Z50	X51	Y51	Z51	X52	Y52	Z52	X53	Y53	Z53	X54	Y54	Z54	

60	0.59	-1581.010864257812	1059.820678710938	-369.5040893554688	-1578.399047851562	1065.03662109375	-489.6246337890625	-1584.479125976562	1131.083618164062	-450.59912109375	-1342.94970703125	1329.174194335938	-447.8824462890625	-1590.182739257812	1255.454711914062	-447.0676879882812	-1546.226928710938	1519.9384765625	-455.5816040039062	-1373.441650390625	1445.073974609375	-449.17138671875	-1612.262451171875	1376.875122070312	-383.9181213378906	-1563.910400390625	1479.7763671875	-565.65576171875	-1473.366333007812	1484.137329101562	-618.24462890625	-1493.996948242188	1364.216186523438	-695.9053955078125	-1455.095336914062	1155.98193359375	-718.6754150390625	-1531.887573242188	1133.265991210938	-682.98291015625	-1346.941040039062	940.0587158203125	-628.5774536132812	-1352.543090820312	916.784423828125	-710.3802490234375	-1416.030029296875	1052.191284179688	-721.4510498046875	-1320.48974609375	749.7949829101562	-618.24267578125	-1325.703491210938	831.71044921875	-697.14111328125	-1296.363891601562	843.6585083007812	-634.9366455078125	-1492.588256835938	1490.550903320312	-284.0384826660156	-1512.396484375	1426.9296875	-216.6971893310547	-1530.88623046875	1148.091552734375	-167.9530334472656	-1560.67041015625	1138.888793945312	-258.0669250488281	-1393.137451171875	929.8961791992188	-202.2714538574219	-1450.33056640625	918.8146362304688	-137.3032989501953	-1504.789184570312	1079.875854492188	-152.1716918945312	-1387.079833984375	735.0836181640625	-201.8180847167969	-1413.856811523438	810.7109985351562	-134.3187561035156	-1533.313598632812	1668.248291015625	-422.8018188476562	-1323.328125	1746.90478515625	-464.53515625	-1348.507934570312	1741.608642578125	-367.9683532714844	-1458.07275390625	1687.38525390625	-539.6598510742188	-1482.5	996.38232421875	-629.3471069335938	-1492.1376953125	1013.799682617188	-263.7854919433594	-1387.599731445312	1054.291259765625	-297.5389099121094	-1374.339965820312	1035.050048828125	-581.9768676757812	-1471.966430664062	508.3885498046875	-588.3243408203125	-1467.486328125	652.4530029296875	-619.1904907226562	-1558.980224609375	38.47123718261719	-574.393798828125	-1525.344116210938	288.0414428710938	-592.6666259765625	-1340.70751953125	46.39260101318359	-533.4002075195312	-1405.949584960938	42.97650527954102	-485.3383483886719	-1432.559936523438	38.76990127563477	-600.627685546875	-1617.449951171875	45.20685958862305	-517.6038208007812	-1475.711791992188	517.8054809570312	-306.6552734375	-1439.523071289062	783.8269653320312	-257.4071655273438	-1554.411987304688	41.78363800048828	-337.5404968261719	-1475.07421875	403.177734375	-326.6099853515625	-1345.03125	47.67026901245117	-392.4599914550781	-1405.015502929688	41.68914413452148	-432.3363647460938	-1442.551879882812	43.38278579711914	-319.25390625	-1620.574829101562	36.8775749206543	-391.3574523925781	-1360.806396484375	808.9718017578125	-184.1810760498047	nan	nan	nan	
61	0.6	-1580.4052734375	1059.734130859375	-368.7091979980469	-1577.888427734375	1064.96923828125	-488.8243408203125	-1583.869140625	1130.939819335938	-449.8698425292969	-1342.239501953125	1329.376953125	-447.2507629394531	-1589.593505859375	1255.280151367188	-446.3880615234375	-1545.934814453125	1519.77099609375	-454.904296875	-1373.080322265625	1445.088623046875	-448.51416015625	-1611.85302734375	1376.632446289062	-383.3401794433594	-1563.653198242188	1479.692138671875	-564.9751586914062	-1473.072143554688	1484.119995117188	-617.585205078125	-1493.6591796875	1364.136962890625	-695.2330322265625	-1454.675537109375	1155.953491210938	-717.7517700195312	-1531.476440429688	1133.268920898438	-681.9963989257812	-1346.837036132812	939.5639038085938	-628.1824340820312	-1352.735473632812	916.5062866210938	-710.0056762695312	-1415.847290039062	1052.080688476562	-720.7196044921875	-1321.205810546875	749.3463745117188	-618.2103881835938	-1326.129638671875	831.33203125	-696.96044921875	-1296.470092773438	843.0419921875	-634.823974609375	-1492.494384765625	1490.561889648438	-283.3360900878906	-1512.136474609375	1426.802734375	-216.0422058105469	-1530.414672851562	1147.937622070312	-167.3709106445312	-1560.252319335938	1138.751586914062	-257.5090026855469	-1392.695922851562	929.7499389648438	-201.8194580078125	-1449.859375	918.64599609375	-136.8370971679688	-1504.358154296875	1079.71044921875	-151.6632232666016	-1386.685791015625	734.9060668945312	-201.5171661376953	-1413.377319335938	810.5308227539062	-133.9853057861328	-1533.259887695312	1668.062744140625	-422.0732727050781	-1323.43603515625	1747.04541015625	-463.9062194824219	-1348.571655273438	1741.744873046875	-367.3246765136719	-1458.153198242188	1687.31689453125	-538.9850463867188	-1482.091552734375	996.3923950195312	-628.6265869140625	-1491.623779296875	1013.708129882812	-263.1543579101562	-1386.994262695312	1054.25830078125	-296.9036560058594	-1373.631225585938	1035.090454101562	-581.33837890625	-1471.220581054688	508.4080200195312	-587.9512939453125	-1466.822387695312	652.5089721679688	-618.7347412109375	-1558.985595703125	38.47798538208008	-574.402587890625	-1524.969360351562	288.0816650390625	-592.4422607421875	-1340.71875	46.40258407592773	-533.3968505859375	-1405.94873046875	42.97214889526367	-485.3309936523438	-1432.558471679688	38.7738037109375	-600.6199951171875	-1617.461791992188	45.21501159667969	-517.609619140625	-1475.43994140625	517.73291015625	-306.2803955078125	-1438.886474609375	783.6385498046875	-256.8728942871094	-1554.407470703125	41.76557540893555	-337.5352172851562	-1474.9189453125	403.099365234375	-326.3406982421875	-1345.033447265625	47.6666259765625	-392.4628295898438	-1405.022827148438	41.6883544921875	-432.3369140625	-1442.559936523438	43.37467956542969	-319.2480163574219	-1620.57763671875	36.87549591064453	-391.3445434570312	-1360.35888671875	808.8472900390625	-183.808349609375	nan	nan	nan	
62	0.61	-1579.82763671875	1059.59814453125	-367.8990783691406	-1577.401611328125	1064.852294921875	-488.0107116699219	-1583.293579101562	1130.801025390625	-449.1209106445312	-1341.528198242188	1329.55810546875	-446.5943603515625	-1589.019775390625	1255.127563476562	-445.6856079101562	-1545.62646484375	1519.621337890625	-454.1758728027344	-1372.7119140625	1445.09716796875	-447.7991638183594	-1611.445556640625	1376.412475585938	-382.7184448242188	-1563.348999023438	1479.629028320312	-564.254150390625	-1472.76171875	1484.115112304688	-616.8841552734375	-1493.2900390625	1364.088500976562	-694.5327758789062	-1454.322875976562	1155.947143554688	-716.840087890625	-1531.108276367188	1133.303588867188	-680.984375	-1346.734008789062	939.0877075195312	-627.8392944335938	-1353.01513671875	916.2429809570312	-709.7012329101562	-1415.745971679688	1051.99365234375	-720.0232543945312	-1322.053100585938	748.8803100585938	-618.2662963867188	-1326.635986328125	830.9642944335938	-696.8572998046875	-1296.629638671875	842.4619750976562	-634.8184814453125	-1492.34326171875	1490.529418945312	-282.5980529785156	-1511.848510742188	1426.648071289062	-215.3465576171875	-1529.94140625	1147.742553710938	-166.7920684814453	-1559.810546875	1138.583740234375	-256.9599914550781	-1392.228759765625	929.605712890625	-201.38525390625	-1449.337646484375	918.44775390625	-136.3876190185547	-1503.894653320312	1079.508056640625	-151.1472320556641	-1386.119873046875	734.744384765625	-201.2305297851562	-1412.791381835938	810.326904296875	-133.6749267578125	-1533.136840820312	1667.882446289062	-421.3262329101562	-1323.474853515625	1747.152221679688	-463.284423828125	-1348.579711914062	1741.893676757812	-366.6626892089844	-1458.167602539062	1687.213500976562	-538.2984619140625	-1481.622314453125	996.3899536132812	-627.875732421875	-1491.1279296875	1013.600036621094	-262.4944152832031	-1386.403564453125	1054.215942382812	-296.2276306152344	-1372.986938476562	1035.127563476562	-580.6612548828125	-1470.34765625	508.4232788085938	-587.549560546875	-1466.058959960938	652.566162109375	-618.2468872070312	-1558.989990234375	38.4860954284668	-574.41357421875	-1524.494140625	288.1027526855469	-592.18896484375	-1340.728149414062	46.41307830810547	-533.39404296875	-1405.94775390625	42.96844863891602	-485.3250427246094	-1432.55712890625	38.77604675292969	-600.6119995117188	-1617.47705078125	45.22577667236328	-517.6148071289062	-1475.137573242188	517.654296875	-305.9007873535156	-1438.193237304688	783.4444580078125	-256.3121032714844	-1554.39892578125	41.74054718017578	-337.52783203125	-1474.726928710938	402.9971618652344	-326.0765075683594	-1345.033813476562	47.6619987487793	-392.4673461914062	-1405.031860351562	41.6842155456543	-432.3389587402344	-1442.568115234375	43.36819076538086	-319.241943359375	-1620.581176757812	36.87108612060547	-391.3268127441406	-1359.831787109375	808.709228515625	-183.470947265625	nan	nan	nan	
63	0.62	-1579.281494140625	1059.414672851562	-367.0752563476562	-1576.9443359375	1064.690795898438	-487.1845703125	-1582.765014648438	1130.668212890625	-448.3557739257812	-1340.823120117188	1329.716186523438	-445.9097290039062	-1588.46142578125	1255.00048828125	-444.9579772949219	-1545.30224609375	1519.495483398438	-453.3968811035156	-1372.337158203125	1445.0986328125	-447.0284423828125	-1611.035278320312	1376.218139648438	-382.052001953125	-1562.993286132812	1479.588012695312	-563.4963989257812	-1472.425048828125	1484.125244140625	-616.1383056640625	-1492.89599609375	1364.073974609375	-693.802001953125	-1454.045288085938	1155.9638671875	-715.9440307617188	-1530.784301757812	1133.37060546875	-679.9510498046875	-1346.685668945312	938.625244140625	-627.5526123046875	-1353.3828125	915.9985961914062	-709.4638061523438	-1415.731811523438	1051.9326171875	-719.36572265625	-1323.035034179688	748.4019775390625	-618.40673828125	-1327.216552734375	830.6104125976562	-696.8281860351562	-1296.866821289062	841.9241943359375	-634.9100341796875	-1492.124633789062	1490.452758789062	-281.8258361816406	-1511.535278320312	1426.469116210938	-214.6136627197266	-1529.467041015625	1147.510620117188	-166.2205810546875	-1559.338623046875	1138.390991210938	-256.41650390625	-1391.74853515625	929.4617309570312	-200.9766082763672	-1448.762451171875	918.2249755859375	-135.9548187255859	-1503.392578125	1079.275268554688	-150.6237640380859	-1385.401977539062	734.59814453125	-200.9540710449219	-1412.110595703125	810.10546875	-133.3753356933594	-1532.94287109375	1667.712524414062	-420.5558776855469	-1323.447631835938	1747.23046875	-462.6703186035156	-1348.525634765625	1742.05322265625	-365.98876953125	-1458.10888671875	1687.082885742188	-537.5960083007812	-1481.079223632812	996.3773803710938	-627.0870361328125	-1490.657836914062	1013.477416992188	-261.8072814941406	-1385.827270507812	1054.166625976562	-295.5111999511719	-1372.432861328125	1035.1630859375	-579.9523315429688	-1469.341674804688	508.4360046386719	-587.1184692382812	-1465.179321289062	652.6182861328125	-617.7230224609375	-1558.992431640625	38.49492263793945	-574.426513671875	-1523.914184570312	288.1085205078125	-591.9052124023438	-1340.736572265625	46.42450332641602	-533.3905639648438	-1405.946655273438	42.96525192260742	-485.3204650878906	-1432.555541992188	38.77772521972656	-600.603515625	-1617.494750976562	45.23917770385742	-517.6192016601562	-1474.791748046875	517.572265625	-305.5147399902344	-1437.445556640625	783.2503051757812	-255.7299346923828	-1554.385498046875	41.71022415161133	-337.5176086425781	-1474.483154296875	402.8709106445312	-325.81591796875	-1345.031372070312	47.65659713745117	-392.47412109375	-1405.042358398438	41.67679595947266	-432.3433532714844	-1442.574829101562	43.36429595947266	-319.2366943359375	-1620.584716796875	36.86329650878906	-391.3036499023438	-1359.206787109375	808.5509643554688	-183.1685943603516	nan	nan	nan	
